<svg width="434" height="529" viewBox="0 0 434 529" fill="none" xmlns="http://www.w3.org/2000/svg">
<g filter="url(#filter0_diii_41_584)">
<path fill-rule="evenodd" clip-rule="evenodd" d="M32 43C32 25.3269 46.3269 11 64 11H370C387.673 11 402 25.3269 402 43V421C402 438.673 387.673 453 370 453H240C238.597 453 237.224 453.126 235.89 453.366C218.498 456.503 202.673 476 185 476H59.0071C44.0915 476 32 463.908 32 448.993V443.383C32 432.427 44 421.956 44 411V411V307V307C44 296.044 32 285.573 32 274.617V43ZM32.7431 407.07V407.07C32.2118 406.763 32 406.137 32 405.523V404.325C32 402.944 32.4975 401.396 33.8639 401.193C34.5464 401.092 35.2666 401.212 35.9106 401.584L39.73 403.789C41.245 404.664 41.7641 406.601 40.8894 408.116C40.0147 409.631 38.0775 410.15 36.5625 409.275L32.7431 407.07ZM32.7431 395.07V395.07C32.2118 394.763 32 394.137 32 393.523V392.325C32 390.944 32.4975 389.396 33.8639 389.193C34.5464 389.092 35.2666 389.212 35.9106 389.584L39.73 391.789C41.245 392.664 41.7641 394.601 40.8894 396.116C40.0147 397.631 38.0775 398.15 36.5625 397.275L32.7431 395.07ZM32.7431 383.07V383.07C32.2118 382.763 32 382.137 32 381.523V380.325C32 378.944 32.4975 377.396 33.8639 377.193C34.5464 377.092 35.2666 377.212 35.9106 377.584L39.73 379.789C41.245 380.664 41.7641 382.601 40.8894 384.116C40.0147 385.631 38.0775 386.15 36.5625 385.275L32.7431 383.07ZM32.7431 371.07V371.07C32.2118 370.763 32 370.137 32 369.523V368.325C32 366.944 32.4975 365.396 33.8639 365.193C34.5464 365.092 35.2666 365.212 35.9106 365.584L39.73 367.789C41.245 368.664 41.7641 370.601 40.8894 372.116C40.0147 373.631 38.0775 374.15 36.5625 373.275L32.7431 371.07ZM32.7431 359.07V359.07C32.2118 358.763 32 358.137 32 357.523V356.325C32 354.944 32.4975 353.396 33.8639 353.193C34.5464 353.092 35.2666 353.212 35.9106 353.584L39.73 355.789C41.245 356.664 41.7641 358.601 40.8894 360.116C40.0147 361.631 38.0775 362.15 36.5625 361.275L32.7431 359.07ZM32.7431 347.07V347.07C32.2118 346.763 32 346.137 32 345.523V344.325C32 342.944 32.4975 341.396 33.8639 341.193C34.5464 341.092 35.2666 341.212 35.9106 341.584L39.73 343.789C41.245 344.664 41.7641 346.601 40.8894 348.116C40.0147 349.631 38.0775 350.15 36.5625 349.275L32.7431 347.07ZM32.7431 335.07V335.07C32.2118 334.763 32 334.137 32 333.523V332.325C32 330.944 32.4975 329.396 33.8639 329.193C34.5464 329.092 35.2666 329.212 35.9106 329.584L39.73 331.789C41.245 332.664 41.7641 334.601 40.8894 336.116C40.0147 337.631 38.0775 338.15 36.5625 337.275L32.7431 335.07ZM32.7431 323.07V323.07C32.2118 322.763 32 322.137 32 321.523V320.325C32 318.944 32.4975 317.396 33.8639 317.193C34.5464 317.092 35.2666 317.212 35.9106 317.584L39.73 319.789C41.245 320.664 41.7641 322.601 40.8894 324.116C40.0147 325.631 38.0775 326.15 36.5625 325.275L32.7431 323.07ZM32.7431 311.07V311.07C32.2118 310.763 32 310.137 32 309.523V308.325C32 306.944 32.4975 305.396 33.8639 305.193C34.5464 305.092 35.2666 305.212 35.9106 305.584L39.73 307.789C41.245 308.664 41.7641 310.601 40.8894 312.116C40.0147 313.631 38.0775 314.15 36.5625 313.275L32.7431 311.07Z" fill="#049023"/>
</g>
<path d="M244.636 468.768C245.052 468.896 245.46 468.992 245.86 469.056C246.26 469.12 246.664 469.152 247.072 469.152C247.28 469.152 247.456 469.148 247.6 469.14C247.752 469.132 247.9 469.116 248.044 469.092V468.432L246.964 468.336C246.5 468.296 246.104 468.224 245.776 468.12C245.456 468.008 245.192 467.86 244.984 467.676C244.784 467.492 244.636 467.264 244.54 466.992C244.452 466.72 244.408 466.392 244.408 466.008C244.408 465.344 244.5 464.816 244.684 464.424C244.876 464.032 245.192 463.752 245.632 463.584C246.072 463.408 246.66 463.32 247.396 463.32C247.884 463.32 248.364 463.352 248.836 463.416C249.308 463.472 249.768 463.56 250.216 463.68L249.916 465.6C249.5 465.512 249.148 465.452 248.86 465.42C248.572 465.38 248.276 465.36 247.972 465.36C247.74 465.36 247.556 465.364 247.42 465.372C247.284 465.38 247.14 465.396 246.988 465.42V466.068L247.852 466.152C248.5 466.216 249.028 466.344 249.436 466.536C249.844 466.728 250.144 466.996 250.336 467.34C250.528 467.676 250.624 468.1 250.624 468.612C250.624 469.204 250.512 469.692 250.288 470.076C250.064 470.452 249.716 470.732 249.244 470.916C248.772 471.092 248.168 471.18 247.432 471.18C246.864 471.18 246.316 471.144 245.788 471.072C245.268 471 244.772 470.892 244.3 470.748L244.636 468.768ZM267.786 467.256C267.786 466.512 267.846 465.888 267.966 465.384C268.086 464.88 268.282 464.476 268.554 464.172C268.834 463.868 269.206 463.652 269.67 463.524C270.134 463.388 270.706 463.32 271.386 463.32C272.066 463.32 272.638 463.388 273.102 463.524C273.566 463.652 273.934 463.868 274.206 464.172C274.486 464.476 274.686 464.88 274.806 465.384C274.926 465.888 274.986 466.512 274.986 467.256C274.986 468 274.926 468.624 274.806 469.128C274.686 469.624 274.486 470.024 274.206 470.328C273.934 470.632 273.566 470.852 273.102 470.988C272.638 471.116 272.066 471.18 271.386 471.18C270.706 471.18 270.134 471.116 269.67 470.988C269.206 470.852 268.834 470.632 268.554 470.328C268.282 470.024 268.086 469.624 267.966 469.128C267.846 468.624 267.786 468 267.786 467.256ZM270.366 469.128H271.458C271.818 469.128 272.066 469.084 272.202 468.996C272.338 468.9 272.406 468.732 272.406 468.492V465.372H271.302C270.95 465.372 270.706 465.42 270.57 465.516C270.434 465.604 270.366 465.768 270.366 466.008V469.128ZM292.448 471V463.5H294.848V469.02H297.128V471H292.448ZM317.292 465.48V471H314.892V465.48H313.212V463.5H318.972V465.48H317.292ZM335.173 471L337.093 463.5H340.825L342.745 471H340.345L339.013 465.804H338.905L337.573 471H335.173ZM336.577 469.812V468.072H341.341V469.812H336.577ZM359.961 471V463.5H362.337L363.969 466.128C364.081 466.304 364.157 466.464 364.197 466.608C364.245 466.744 364.269 466.868 364.269 466.98H364.341V463.5H366.741V471H364.365L362.733 468.372C362.629 468.188 362.553 468.028 362.505 467.892C362.457 467.748 362.433 467.624 362.433 467.52H362.361V471H359.961ZM388.71 471L387.762 468.984C387.658 468.776 387.582 468.592 387.534 468.432C387.486 468.272 387.462 468.136 387.462 468.024H386.706V466.272H387.462C387.462 466.16 387.486 466.024 387.534 465.864C387.582 465.704 387.658 465.52 387.762 465.312L388.65 463.5H391.194L389.43 467.148L391.254 471H388.71ZM384.498 471V463.5H386.898V471H384.498Z" fill="#B47A04"/>
<defs>
<filter id="filter0_diii_41_584" x="0" y="0" width="434" height="529" filterUnits="userSpaceOnUse" color-interpolation-filters="sRGB">
<feFlood flood-opacity="0" result="BackgroundImageFix"/>
<feColorMatrix in="SourceAlpha" type="matrix" values="0 0 0 0 0 0 0 0 0 0 0 0 0 0 0 0 0 0 127 0" result="hardAlpha"/>
<feOffset dy="21"/>
<feGaussianBlur stdDeviation="16"/>
<feComposite in2="hardAlpha" operator="out"/>
<feColorMatrix type="matrix" values="0 0 0 0 0.00442708 0 0 0 0 0.2125 0 0 0 0 0.0502293 0 0 0 0.72 0"/>
<feBlend mode="normal" in2="BackgroundImageFix" result="effect1_dropShadow_41_584"/>
<feBlend mode="normal" in="SourceGraphic" in2="effect1_dropShadow_41_584" result="shape"/>
<feColorMatrix in="SourceAlpha" type="matrix" values="0 0 0 0 0 0 0 0 0 0 0 0 0 0 0 0 0 0 127 0" result="hardAlpha"/>
<feOffset dy="-4"/>
<feGaussianBlur stdDeviation="6"/>
<feComposite in2="hardAlpha" operator="arithmetic" k2="-1" k3="1"/>
<feColorMatrix type="matrix" values="0 0 0 0 0 0 0 0 0 0 0 0 0 0 0 0 0 0 0.39 0"/>
<feBlend mode="normal" in2="shape" result="effect2_innerShadow_41_584"/>
<feColorMatrix in="SourceAlpha" type="matrix" values="0 0 0 0 0 0 0 0 0 0 0 0 0 0 0 0 0 0 127 0" result="hardAlpha"/>
<feOffset dy="4"/>
<feGaussianBlur stdDeviation="5.5"/>
<feComposite in2="hardAlpha" operator="arithmetic" k2="-1" k3="1"/>
<feColorMatrix type="matrix" values="0 0 0 0 1 0 0 0 0 1 0 0 0 0 1 0 0 0 0.45 0"/>
<feBlend mode="normal" in2="effect2_innerShadow_41_584" result="effect3_innerShadow_41_584"/>
<feColorMatrix in="SourceAlpha" type="matrix" values="0 0 0 0 0 0 0 0 0 0 0 0 0 0 0 0 0 0 127 0" result="hardAlpha"/>
<feOffset dy="-4"/>
<feGaussianBlur stdDeviation="4"/>
<feComposite in2="hardAlpha" operator="arithmetic" k2="-1" k3="1"/>
<feColorMatrix type="matrix" values="0 0 0 0 0 0 0 0 0 0 0 0 0 0 0 0 0 0 0.25 0"/>
<feBlend mode="normal" in2="effect3_innerShadow_41_584" result="effect4_innerShadow_41_584"/>
</filter>
</defs>
</svg>
