<svg width="434" height="529" viewBox="0 0 434 529" fill="none" xmlns="http://www.w3.org/2000/svg">
<g filter="url(#filter0_diii_1_372)">
<path fill-rule="evenodd" clip-rule="evenodd" d="M32 43C32 25.3269 46.3269 11 64 11H370C387.673 11 402 25.3269 402 43V421C402 438.673 387.673 453 370 453H240C238.597 453 237.224 453.126 235.89 453.366C218.498 456.503 202.673 476 185 476H59.0071C44.0915 476 32 463.908 32 448.993V443.383C32 432.427 44 421.956 44 411V411V307V307C44 296.044 32 285.573 32 274.617V43ZM32.7431 407.07V407.07C32.2118 406.763 32 406.137 32 405.523V404.325C32 402.944 32.4975 401.396 33.8639 401.193C34.5464 401.092 35.2666 401.212 35.9106 401.584L39.73 403.789C41.245 404.664 41.7641 406.601 40.8894 408.116C40.0147 409.631 38.0775 410.15 36.5625 409.275L32.7431 407.07ZM32.7431 395.07V395.07C32.2118 394.763 32 394.137 32 393.523V392.325C32 390.944 32.4975 389.396 33.8639 389.193C34.5464 389.092 35.2666 389.212 35.9106 389.584L39.73 391.789C41.245 392.664 41.7641 394.601 40.8894 396.116C40.0147 397.631 38.0775 398.15 36.5625 397.275L32.7431 395.07ZM32.7431 383.07V383.07C32.2118 382.763 32 382.137 32 381.523V380.325C32 378.944 32.4975 377.396 33.8639 377.193C34.5464 377.092 35.2666 377.212 35.9106 377.584L39.73 379.789C41.245 380.664 41.7641 382.601 40.8894 384.116C40.0147 385.631 38.0775 386.15 36.5625 385.275L32.7431 383.07ZM32.7431 371.07V371.07C32.2118 370.763 32 370.137 32 369.523V368.325C32 366.944 32.4975 365.396 33.8639 365.193C34.5464 365.092 35.2666 365.212 35.9106 365.584L39.73 367.789C41.245 368.664 41.7641 370.601 40.8894 372.116C40.0147 373.631 38.0775 374.15 36.5625 373.275L32.7431 371.07ZM32.7431 359.07V359.07C32.2118 358.763 32 358.137 32 357.523V356.325C32 354.944 32.4975 353.396 33.8639 353.193C34.5464 353.092 35.2666 353.212 35.9106 353.584L39.73 355.789C41.245 356.664 41.7641 358.601 40.8894 360.116C40.0147 361.631 38.0775 362.15 36.5625 361.275L32.7431 359.07ZM32.7431 347.07V347.07C32.2118 346.763 32 346.137 32 345.523V344.325C32 342.944 32.4975 341.396 33.8639 341.193C34.5464 341.092 35.2666 341.212 35.9106 341.584L39.73 343.789C41.245 344.664 41.7641 346.601 40.8894 348.116C40.0147 349.631 38.0775 350.15 36.5625 349.275L32.7431 347.07ZM32.7431 335.07V335.07C32.2118 334.763 32 334.137 32 333.523V332.325C32 330.944 32.4975 329.396 33.8639 329.193C34.5464 329.092 35.2666 329.212 35.9106 329.584L39.73 331.789C41.245 332.664 41.7641 334.601 40.8894 336.116C40.0147 337.631 38.0775 338.15 36.5625 337.275L32.7431 335.07ZM32.7431 323.07V323.07C32.2118 322.763 32 322.137 32 321.523V320.325C32 318.944 32.4975 317.396 33.8639 317.193C34.5464 317.092 35.2666 317.212 35.9106 317.584L39.73 319.789C41.245 320.664 41.7641 322.601 40.8894 324.116C40.0147 325.631 38.0775 326.15 36.5625 325.275L32.7431 323.07ZM32.7431 311.07V311.07C32.2118 310.763 32 310.137 32 309.523V308.325C32 306.944 32.4975 305.396 33.8639 305.193C34.5464 305.092 35.2666 305.212 35.9106 305.584L39.73 307.789C41.245 308.664 41.7641 310.601 40.8894 312.116C40.0147 313.631 38.0775 314.15 36.5625 313.275L32.7431 311.07Z" fill="#049023"/>
</g>
<defs>
<filter id="filter0_diii_1_372" x="0" y="0" width="434" height="529" filterUnits="userSpaceOnUse" color-interpolation-filters="sRGB">
<feFlood flood-opacity="0" result="BackgroundImageFix"/>
<feColorMatrix in="SourceAlpha" type="matrix" values="0 0 0 0 0 0 0 0 0 0 0 0 0 0 0 0 0 0 127 0" result="hardAlpha"/>
<feOffset dy="21"/>
<feGaussianBlur stdDeviation="16"/>
<feComposite in2="hardAlpha" operator="out"/>
<feColorMatrix type="matrix" values="0 0 0 0 0.00442708 0 0 0 0 0.2125 0 0 0 0 0.0502293 0 0 0 0.72 0"/>
<feBlend mode="normal" in2="BackgroundImageFix" result="effect1_dropShadow_1_372"/>
<feBlend mode="normal" in="SourceGraphic" in2="effect1_dropShadow_1_372" result="shape"/>
<feColorMatrix in="SourceAlpha" type="matrix" values="0 0 0 0 0 0 0 0 0 0 0 0 0 0 0 0 0 0 127 0" result="hardAlpha"/>
<feOffset dy="-4"/>
<feGaussianBlur stdDeviation="6"/>
<feComposite in2="hardAlpha" operator="arithmetic" k2="-1" k3="1"/>
<feColorMatrix type="matrix" values="0 0 0 0 0 0 0 0 0 0 0 0 0 0 0 0 0 0 0.39 0"/>
<feBlend mode="normal" in2="shape" result="effect2_innerShadow_1_372"/>
<feColorMatrix in="SourceAlpha" type="matrix" values="0 0 0 0 0 0 0 0 0 0 0 0 0 0 0 0 0 0 127 0" result="hardAlpha"/>
<feOffset dy="4"/>
<feGaussianBlur stdDeviation="5.5"/>
<feComposite in2="hardAlpha" operator="arithmetic" k2="-1" k3="1"/>
<feColorMatrix type="matrix" values="0 0 0 0 1 0 0 0 0 1 0 0 0 0 1 0 0 0 0.45 0"/>
<feBlend mode="normal" in2="effect2_innerShadow_1_372" result="effect3_innerShadow_1_372"/>
<feColorMatrix in="SourceAlpha" type="matrix" values="0 0 0 0 0 0 0 0 0 0 0 0 0 0 0 0 0 0 127 0" result="hardAlpha"/>
<feOffset dy="-4"/>
<feGaussianBlur stdDeviation="4"/>
<feComposite in2="hardAlpha" operator="arithmetic" k2="-1" k3="1"/>
<feColorMatrix type="matrix" values="0 0 0 0 0 0 0 0 0 0 0 0 0 0 0 0 0 0 0.25 0"/>
<feBlend mode="normal" in2="effect3_innerShadow_1_372" result="effect4_innerShadow_1_372"/>
</filter>
</defs>
</svg>
