<svg width="42" height="42" viewBox="0 0 42 42" fill="none" xmlns="http://www.w3.org/2000/svg">
<g clip-path="url(#clip0_1_89)">
<path d="M12.8432 17.6488L20.9996 9.49263L29.1602 17.653L33.9062 12.907L20.9996 0L8.09745 12.9028L12.8432 17.6488ZM0 20.9993L4.74613 16.2532L9.49195 20.9991L4.74586 25.7452L0 20.9993ZM12.8432 24.3512L20.9996 32.5074L29.16 24.3472L33.9085 29.0907L33.9062 29.0932L20.9996 42L8.09703 29.0976L8.09031 29.0909L12.8432 24.3512ZM32.5081 21.002L37.2542 16.2558L42 21.0017L37.2539 25.7478L32.5081 21.002Z" fill="#F3BA2F"/>
<path d="M24.9333 20.3413H24.9353L20.3437 15.75L16.9505 19.1431H16.9503L16.5605 19.5331L15.7564 20.3373L15.75 20.3436L15.7564 20.3502L20.3437 24.9375L24.9353 20.3462L24.9375 20.3436L24.9333 20.3413" fill="#F3BA2F"/>
</g>
<defs>
<clipPath id="clip0_1_89">
<rect width="42" height="42" fill="white"/>
</clipPath>
</defs>
</svg>
