<svg width="24" height="24" viewBox="0 0 24 24" fill="none" xmlns="http://www.w3.org/2000/svg">
<path d="M2.88045 0.214844C1.33287 0.214844 0.0739746 1.47382 0.0739746 3.02132C0.0739746 4.56882 1.33234 5.82771 2.88045 5.82771C4.42856 5.82771 5.68693 4.56882 5.68693 3.02132C5.68693 1.47382 4.42795 0.214844 2.88045 0.214844Z" fill="white"/>
<path d="M11.9635 0.214844C10.416 0.214844 9.15698 1.47382 9.15698 3.02132C9.15698 4.56882 10.416 5.82771 11.9635 5.82771C13.511 5.82771 14.7702 4.56882 14.7702 3.02132C14.7702 1.47382 13.5116 0.214844 11.9635 0.214844Z" fill="white"/>
<path d="M21.1934 5.82779C22.7407 5.82779 23.9999 4.5689 23.9999 3.02141C23.9999 1.47391 22.7417 0.214844 21.1934 0.214844C19.6452 0.214844 18.387 1.47382 18.387 3.02132C18.387 4.56882 19.6461 5.82779 21.1934 5.82779Z" fill="white"/>
<path d="M2.807 14.8206C4.3545 14.8206 5.61373 13.562 5.61373 12.0143C5.61373 10.4664 4.3545 9.20752 2.807 9.20752C1.2595 9.20752 0 10.4665 0 12.0143C0 13.562 1.2595 14.8206 2.807 14.8206Z" fill="white"/>
<path d="M11.8902 14.8206C13.4375 14.8206 14.6967 13.562 14.6967 12.0143C14.6967 10.4664 13.4385 9.20752 11.8902 9.20752C10.3422 9.20752 9.08374 10.4664 9.08374 12.0143C9.08374 13.562 10.3427 14.8206 11.8902 14.8206Z" fill="white"/>
<path d="M21.121 14.8206C22.6688 14.8206 23.9275 13.562 23.9275 12.0143C23.9275 10.4664 22.6688 9.20752 21.121 9.20752C19.5731 9.20752 18.3135 10.4664 18.3135 12.0143C18.3135 13.562 19.5727 14.8206 21.121 14.8206Z" fill="white"/>
<path d="M2.87121 18.1724C1.32371 18.1724 0.064209 19.431 0.064209 20.9788C0.064209 22.5261 1.32371 23.7852 2.87121 23.7852C4.41871 23.7852 5.6776 22.5267 5.6776 20.9788C5.6776 19.431 4.41871 18.1724 2.87121 18.1724Z" fill="white"/>
<path d="M11.9549 18.1724C10.4074 18.1724 9.14795 19.431 9.14795 20.9788C9.14795 22.5261 10.4069 23.7852 11.9549 23.7852C13.5022 23.7852 14.7613 22.5267 14.7613 20.9788C14.7613 19.431 13.5022 18.1724 11.9549 18.1724Z" fill="white"/>
<path d="M21.1846 18.1724C19.6374 18.1724 18.3782 19.431 18.3782 20.9788C18.3782 22.5261 19.6374 23.7852 21.1846 23.7852C22.7325 23.7852 23.9911 22.5267 23.9911 20.9788C23.9911 19.431 22.7319 18.1724 21.1846 18.1724Z" fill="white"/>
</svg>
