<svg width="1920" height="872" viewBox="0 0 1920 872" fill="none" xmlns="http://www.w3.org/2000/svg">
<mask id="mask0_35_44" style="mask-type:alpha" maskUnits="userSpaceOnUse" x="0" y="0" width="1920" height="872">
<path fill-rule="evenodd" clip-rule="evenodd" d="M59.2944 128.054C24.3197 137.425 0 169.119 0 205.328V666.306C0 702.515 24.3199 734.209 59.2945 743.58L528.39 869.274C535.143 871.084 542.104 872 549.095 872H1371.25C1378.24 872 1385.21 871.084 1391.96 869.274L1860.71 743.674C1895.68 734.302 1920 702.608 1920 666.4V205.234C1920 169.026 1895.68 137.332 1860.71 127.96L1393.32 2.72593C1386.57 0.916451 1379.61 0 1372.62 0H547.73C540.739 0 533.777 0.916451 527.024 2.72593L59.2944 128.054Z" fill="#C4C4C4"/>
</mask>
<g mask="url(#mask0_35_44)">
<rect y="-90" width="1920" height="962" fill="black"/>
</g>
</svg>
