<svg width="1877" height="872" viewBox="0 0 1877 872" fill="none" xmlns="http://www.w3.org/2000/svg">
<mask id="mask0_1_872" style="mask-type:alpha" maskUnits="userSpaceOnUse" x="0" y="0" width="1920" height="872">
<mask id="path-1-inside-1_1_872" fill="white">
<path fill-rule="evenodd" clip-rule="evenodd" d="M59.2944 128.054C24.3197 137.425 0 169.119 0 205.328V666.306C0 702.515 24.3199 734.209 59.2945 743.58L528.39 869.274C535.143 871.084 542.104 872 549.095 872H1371.25C1378.24 872 1385.21 871.084 1391.96 869.274L1860.71 743.674C1895.68 734.302 1920 702.608 1920 666.4V205.234C1920 169.026 1895.68 137.332 1860.71 127.96L1393.32 2.72593C1386.57 0.916451 1379.61 0 1372.62 0H547.73C540.739 0 533.777 0.916451 527.024 2.72593L59.2944 128.054Z"/>
</mask>
<path fill-rule="evenodd" clip-rule="evenodd" d="M59.2944 128.054C24.3197 137.425 0 169.119 0 205.328V666.306C0 702.515 24.3199 734.209 59.2945 743.58L528.39 869.274C535.143 871.084 542.104 872 549.095 872H1371.25C1378.24 872 1385.21 871.084 1391.96 869.274L1860.71 743.674C1895.68 734.302 1920 702.608 1920 666.4V205.234C1920 169.026 1895.68 137.332 1860.71 127.96L1393.32 2.72593C1386.57 0.916451 1379.61 0 1372.62 0H547.73C540.739 0 533.777 0.916451 527.024 2.72593L59.2944 128.054Z" fill="black"/>
<path d="M527.024 2.72593L526.765 1.76001L527.024 2.72593ZM1393.32 2.72593L1393.07 3.69186L1393.32 2.72593ZM1860.71 127.96L1860.45 128.926L1860.71 127.96ZM1860.71 743.674L1860.96 744.64L1860.71 743.674ZM1391.96 869.274L1391.7 868.308L1391.96 869.274ZM528.39 869.274L528.131 870.24L528.39 869.274ZM59.2945 743.58L59.0357 744.546L59.2945 743.58ZM1 666.306V205.328H-1V666.306H1ZM528.648 868.308L59.5534 742.614L59.0357 744.546L528.131 870.24L528.648 868.308ZM1371.25 871H549.095V873H1371.25V871ZM1860.45 742.708L1391.7 868.308L1392.22 870.24L1860.96 744.64L1860.45 742.708ZM1919 205.234V666.4H1921V205.234H1919ZM1393.07 3.69186L1860.45 128.926L1860.96 126.994L1393.58 1.76001L1393.07 3.69186ZM547.73 1H1372.62V-1H547.73V1ZM526.765 1.76001L59.0356 127.088L59.5532 129.02L527.283 3.69186L526.765 1.76001ZM547.73 -1C540.651 -1 533.603 -0.0720936 526.765 1.76001L527.283 3.69186C533.952 1.905 540.826 1 547.73 1V-1ZM1393.58 1.76001C1386.75 -0.0720934 1379.7 -1 1372.62 -1V1C1379.52 1 1386.4 1.905 1393.07 3.69186L1393.58 1.76001ZM1921 205.234C1921 168.573 1896.38 136.483 1860.96 126.994L1860.45 128.926C1894.98 138.181 1919 169.479 1919 205.234H1921ZM1860.96 744.64C1896.38 735.151 1921 703.061 1921 666.4H1919C1919 702.156 1894.98 733.454 1860.45 742.708L1860.96 744.64ZM1371.25 873C1378.33 873 1385.38 872.072 1392.22 870.24L1391.7 868.308C1385.03 870.095 1378.16 871 1371.25 871V873ZM528.131 870.24C534.968 872.072 542.017 873 549.095 873V871C542.191 871 535.317 870.095 528.648 868.308L528.131 870.24ZM1 205.328C1 169.572 25.0158 138.274 59.5532 129.02L59.0356 127.088C23.6237 136.576 -1 168.667 -1 205.328H1ZM-1 666.306C-1 702.967 23.6239 735.058 59.0357 744.546L59.5534 742.614C25.0159 733.36 1 702.062 1 666.306H-1Z" fill="black" mask="url(#path-1-inside-1_1_872)"/>
</mask>
<g mask="url(#mask0_1_872)">
<rect y="-90" width="1920" height="962" fill="black"/>
</g>
</svg>
