<svg width="562" height="247" viewBox="0 0 562 247" fill="none" xmlns="http://www.w3.org/2000/svg">
<g filter="url(#filter0_diii_1_363)">
<path fill-rule="evenodd" clip-rule="evenodd" d="M68.2169 34.0106C74.6627 19.9061 88.8516 11 104.359 11H114.664C131.147 11 147.026 30 163.51 30V30L401.51 30V30C417.994 30 433.873 11 450.356 11L458.173 11C472.834 11 486.215 19.5057 492.249 32.8667C511.702 75.9422 523.893 108.379 529.178 148.168C532.511 173.255 511.57 194 486.262 194V194C462.459 194 442.292 170.328 419.918 162.202C415.995 160.777 411.76 160 407.344 160L151.835 160C146.951 160 142.289 160.951 138.024 162.677C116.653 171.328 97.2987 194 74.2432 194V194C49.4343 194 29.1117 173.462 32.3379 148.864C37.8923 106.514 49.8937 74.1045 68.2169 34.0106Z" fill="#04A327"/>
</g>
<defs>
<filter id="filter0_diii_1_363" x="0" y="0" width="561.528" height="247" filterUnits="userSpaceOnUse" color-interpolation-filters="sRGB">
<feFlood flood-opacity="0" result="BackgroundImageFix"/>
<feColorMatrix in="SourceAlpha" type="matrix" values="0 0 0 0 0 0 0 0 0 0 0 0 0 0 0 0 0 0 127 0" result="hardAlpha"/>
<feOffset dy="21"/>
<feGaussianBlur stdDeviation="16"/>
<feComposite in2="hardAlpha" operator="out"/>
<feColorMatrix type="matrix" values="0 0 0 0 0.00442708 0 0 0 0 0.2125 0 0 0 0 0.0502293 0 0 0 0.72 0"/>
<feBlend mode="normal" in2="BackgroundImageFix" result="effect1_dropShadow_1_363"/>
<feBlend mode="normal" in="SourceGraphic" in2="effect1_dropShadow_1_363" result="shape"/>
<feColorMatrix in="SourceAlpha" type="matrix" values="0 0 0 0 0 0 0 0 0 0 0 0 0 0 0 0 0 0 127 0" result="hardAlpha"/>
<feOffset dy="-4"/>
<feGaussianBlur stdDeviation="6"/>
<feComposite in2="hardAlpha" operator="arithmetic" k2="-1" k3="1"/>
<feColorMatrix type="matrix" values="0 0 0 0 0 0 0 0 0 0 0 0 0 0 0 0 0 0 0.39 0"/>
<feBlend mode="normal" in2="shape" result="effect2_innerShadow_1_363"/>
<feColorMatrix in="SourceAlpha" type="matrix" values="0 0 0 0 0 0 0 0 0 0 0 0 0 0 0 0 0 0 127 0" result="hardAlpha"/>
<feOffset dy="4"/>
<feGaussianBlur stdDeviation="5.5"/>
<feComposite in2="hardAlpha" operator="arithmetic" k2="-1" k3="1"/>
<feColorMatrix type="matrix" values="0 0 0 0 1 0 0 0 0 1 0 0 0 0 1 0 0 0 0.45 0"/>
<feBlend mode="normal" in2="effect2_innerShadow_1_363" result="effect3_innerShadow_1_363"/>
<feColorMatrix in="SourceAlpha" type="matrix" values="0 0 0 0 0 0 0 0 0 0 0 0 0 0 0 0 0 0 127 0" result="hardAlpha"/>
<feOffset dy="-4"/>
<feGaussianBlur stdDeviation="4"/>
<feComposite in2="hardAlpha" operator="arithmetic" k2="-1" k3="1"/>
<feColorMatrix type="matrix" values="0 0 0 0 0 0 0 0 0 0 0 0 0 0 0 0 0 0 0.25 0"/>
<feBlend mode="normal" in2="effect3_innerShadow_1_363" result="effect4_innerShadow_1_363"/>
</filter>
</defs>
</svg>
