<svg width="370" height="431" viewBox="0 0 370 431" fill="none" xmlns="http://www.w3.org/2000/svg">
<g filter="url(#filter0_iii_41_657)">
<path fill-rule="evenodd" clip-rule="evenodd" d="M158.5 25C136.531 25 115.417 0 93.4478 0H50C22.3858 0 0 22.3857 0 50V354.735C0 367.293 9.5782 377.606 18.4586 386.486L55.4101 423.438C59.6279 427.655 64.9639 431 70.9288 431H314.213C327.474 431 340.192 425.732 349.569 416.355L361.438 404.486C366.14 399.784 370 393.886 370 387.236V75C370 47.3858 347.614 25 320 25L158.5 25ZM152.898 1.05619C149.938 2.49752 149.046 5.86828 150.906 8.585L154.668 14.0811C156.528 16.7978 160.435 17.8317 163.395 16.3904C166.355 14.9491 167.247 11.5783 165.387 8.8616L161.625 3.36549C159.765 0.648774 155.858 -0.385137 152.898 1.05619ZM174.352 8.585C172.492 5.86828 173.384 2.49752 176.344 1.05619C179.304 -0.385136 183.212 0.648775 185.071 3.3655L188.834 8.8616C190.694 11.5783 189.802 14.9491 186.842 16.3904C183.882 17.8317 179.974 16.7978 178.114 14.0811L174.352 8.585ZM199.79 1.05619C196.83 2.49752 195.938 5.86828 197.798 8.585L201.561 14.0811C203.42 16.7978 207.328 17.8317 210.288 16.3904C213.248 14.9491 214.14 11.5783 212.28 8.8616L208.517 3.36549C206.658 0.648774 202.75 -0.385137 199.79 1.05619ZM221.244 8.585C219.384 5.86828 220.276 2.49752 223.236 1.05619C226.196 -0.385136 230.104 0.648775 231.963 3.3655L235.726 8.8616C237.586 11.5783 236.694 14.9491 233.734 16.3904C230.774 17.8317 226.866 16.7978 225.007 14.0811L221.244 8.585ZM246.683 1.05619C243.723 2.49752 242.831 5.86828 244.691 8.585L248.453 14.0811C250.313 16.7978 254.22 17.8317 257.18 16.3904C260.14 14.9491 261.032 11.5783 259.172 8.8616L255.41 3.36549C253.55 0.648774 249.643 -0.385137 246.683 1.05619ZM268.137 8.585C266.277 5.86828 267.169 2.49752 270.129 1.05619C273.089 -0.385136 276.996 0.648775 278.856 3.36549L282.618 8.8616C284.478 11.5783 283.586 14.9491 280.626 16.3904C277.666 17.8317 273.759 16.7978 271.899 14.0811L268.137 8.585ZM293.575 1.05619C290.615 2.49752 289.723 5.86829 291.583 8.585L295.345 14.0811C297.205 16.7978 301.112 17.8317 304.073 16.3904C307.033 14.9491 307.925 11.5783 306.065 8.8616L302.302 3.3655C300.443 0.648775 296.535 -0.385135 293.575 1.05619ZM315.029 8.585C313.169 5.86828 314.061 2.49752 317.021 1.05619C319.981 -0.385136 323.889 0.648774 325.748 3.36549L329.511 8.8616C331.371 11.5783 330.479 14.9491 327.519 16.3904C324.559 17.8317 320.651 16.7978 318.792 14.0811L315.029 8.585ZM340.467 1.05619C337.507 2.49752 336.615 5.86828 338.475 8.58501L342.238 14.0811C344.097 16.7978 348.005 17.8317 350.965 16.3904C353.925 14.9491 354.817 11.5783 352.957 8.8616L349.194 3.3655C347.335 0.648775 343.427 -0.385135 340.467 1.05619Z" fill="url(#paint0_linear_41_657)"/>
</g>
<path fill-rule="evenodd" clip-rule="evenodd" d="M53.5 20C37.7599 20 25 32.7599 25 48.5C25 56.7659 25.0925 65.5332 25.0018 73.7986C25.0006 73.9103 25 74.0222 25 74.1343V336.85C25 346.439 32.3111 354.314 39.0917 361.094L67.3215 389.324C72.6989 394.701 79.1623 399.865 86.7672 399.865H323.048C324.563 399.865 325.96 399.121 327.032 398.05L343.131 381.95C344.756 380.325 346 378.252 346 375.953V74.1343C346 57.5658 332.569 44.1343 316 44.1343H135.408C120.6 44.1343 108.402 30.9685 95.5126 23.677C91.3747 21.3361 86.5934 20 81.5 20H53.5Z" fill="url(#paint1_linear_41_657)" fill-opacity="0.59"/>
<defs>
<filter id="filter0_iii_41_657" x="0" y="-4" width="370" height="439" filterUnits="userSpaceOnUse" color-interpolation-filters="sRGB">
<feFlood flood-opacity="0" result="BackgroundImageFix"/>
<feBlend mode="normal" in="SourceGraphic" in2="BackgroundImageFix" result="shape"/>
<feColorMatrix in="SourceAlpha" type="matrix" values="0 0 0 0 0 0 0 0 0 0 0 0 0 0 0 0 0 0 127 0" result="hardAlpha"/>
<feOffset dy="-4"/>
<feGaussianBlur stdDeviation="6"/>
<feComposite in2="hardAlpha" operator="arithmetic" k2="-1" k3="1"/>
<feColorMatrix type="matrix" values="0 0 0 0 0 0 0 0 0 0 0 0 0 0 0 0 0 0 0.39 0"/>
<feBlend mode="normal" in2="shape" result="effect1_innerShadow_41_657"/>
<feColorMatrix in="SourceAlpha" type="matrix" values="0 0 0 0 0 0 0 0 0 0 0 0 0 0 0 0 0 0 127 0" result="hardAlpha"/>
<feOffset dy="4"/>
<feGaussianBlur stdDeviation="5.5"/>
<feComposite in2="hardAlpha" operator="arithmetic" k2="-1" k3="1"/>
<feColorMatrix type="matrix" values="0 0 0 0 1 0 0 0 0 1 0 0 0 0 1 0 0 0 0.08 0"/>
<feBlend mode="normal" in2="effect1_innerShadow_41_657" result="effect2_innerShadow_41_657"/>
<feColorMatrix in="SourceAlpha" type="matrix" values="0 0 0 0 0 0 0 0 0 0 0 0 0 0 0 0 0 0 127 0" result="hardAlpha"/>
<feOffset dy="-4"/>
<feGaussianBlur stdDeviation="4"/>
<feComposite in2="hardAlpha" operator="arithmetic" k2="-1" k3="1"/>
<feColorMatrix type="matrix" values="0 0 0 0 0 0 0 0 0 0 0 0 0 0 0 0 0 0 0.13 0"/>
<feBlend mode="normal" in2="effect2_innerShadow_41_657" result="effect3_innerShadow_41_657"/>
</filter>
<linearGradient id="paint0_linear_41_657" x1="185" y1="0" x2="185" y2="431" gradientUnits="userSpaceOnUse">
<stop stop-color="#0ECC71"/>
<stop offset="0.942708" stop-color="#34BF53"/>
</linearGradient>
<linearGradient id="paint1_linear_41_657" x1="185.5" y1="20" x2="185.5" y2="399.865" gradientUnits="userSpaceOnUse">
<stop stop-color="#257D63"/>
<stop offset="1" stop-color="#34564C"/>
</linearGradient>
</defs>
</svg>
