<svg width="41" height="41" viewBox="0 0 41 41" fill="none" xmlns="http://www.w3.org/2000/svg">
<path fill-rule="evenodd" clip-rule="evenodd" d="M20.2077 -0.0507804L21.7915 -0.0507803L21.7915 6.70344L27.2285 4.29269L27.7102 4.53353C29.7192 5.4275 31.5643 6.65752 33.1319 8.22518C34.6951 9.78834 35.9875 11.5833 36.8321 13.6665L36.8366 13.6777L36.9967 14.1579L34.5989 19.5657L41.3531 19.5657L41.3531 21.1495L34.5989 21.1495L36.9967 26.5572L36.8346 27.0434L36.8271 27.0602C35.9329 29.0723 34.7017 30.9202 33.132 32.49C31.5688 34.0531 29.7738 35.3455 27.6906 36.1901L27.6794 36.1946L27.1999 36.3544L21.7367 33.9547L21.7367 40.7111L20.1529 40.7111L20.1529 33.9569L14.7451 36.3547L14.2589 36.1926L14.2421 36.1851C12.23 35.2909 10.3821 34.0597 8.81238 32.49C7.24923 30.9268 5.95682 29.1318 5.11228 27.0486L5.10774 27.0374L4.94767 26.5572L7.34544 21.1495L0.591218 21.1495L0.591218 19.5657L7.34544 19.5657L4.94016 14.141L5.17196 13.6001C6.06623 11.588 7.29745 9.74011 8.86718 8.17039C10.4303 6.60723 12.2253 5.31482 14.3085 4.47028L14.3197 4.46574L14.7999 4.30567L20.2077 6.70344L20.2077 -0.0507804ZM20.9696 0.711124L20.9696 7.87471L14.7609 5.1218L14.5836 5.18088C12.6167 5.98028 10.9084 7.20663 9.40593 8.70913C7.90775 10.2073 6.72833 11.975 5.86926 13.9072L5.7713 14.1358L8.51671 20.3276L1.35312 20.3276L1.35312 20.3876L8.51671 20.3876L5.7638 26.5963L5.82288 26.7735C6.62228 28.7404 7.84862 30.4487 9.35113 31.9512C10.8456 33.4456 12.6082 34.6229 14.5348 35.4815L14.7061 35.5385L20.9148 32.7856L20.9148 39.9492L20.9748 39.9492L20.9748 32.7878L27.2375 35.5388L27.4155 35.4795C29.3824 34.68 31.0907 33.4537 32.5932 31.9512C34.0876 30.4568 35.2649 28.6941 36.1235 26.7675L36.1805 26.5963L33.4276 20.3876L40.5912 20.3876L40.5912 20.3276L33.4276 20.3276L36.1805 14.1189L36.1214 13.9416C35.322 11.9747 34.0957 10.2664 32.5932 8.76393C31.0944 7.26516 29.3259 6.0854 27.3928 5.22624L27.3849 5.22272L27.209 5.13478L21.0296 7.87471L21.0296 0.711124L20.9696 0.711124ZM14.7216 6.04865L20.9148 8.79469L20.9148 12.307L20.5549 12.327C19.7436 12.3721 18.9357 12.5331 18.1979 12.8074L18.2097 12.833C19.9728 12.2026 21.9715 12.2026 23.7347 12.833L23.744 12.8128C22.9734 12.5334 22.2005 12.372 21.3894 12.327L21.0296 12.307L21.0296 8.79469L27.2202 6.0498L27.3755 6.11997C29.118 6.90688 30.6352 7.97499 31.9813 9.32107C33.33 10.6698 34.3959 12.2415 35.1804 13.9225L35.2537 14.0796L32.5076 20.2728L28.9954 20.2728L28.9754 19.9129C28.9303 19.1016 28.7692 18.2937 28.4949 17.5559L28.4705 17.5671C28.7891 18.4398 28.9696 19.3613 28.9696 20.3302C28.9696 21.299 28.7891 22.2206 28.4705 23.0932L28.4895 23.102C28.769 22.3314 28.9303 21.5585 28.9754 20.7474L28.9954 20.3876L32.5076 20.3876L35.2525 26.5782L35.1824 26.7335C34.3955 28.476 33.3273 29.9932 31.9813 31.3393C30.6325 32.688 29.0609 33.7539 27.3798 34.5384L27.2228 34.6117L21.0296 31.8656L21.0296 28.3534L21.3894 28.3334C22.2007 28.2883 23.0087 28.1272 23.7464 27.8529L23.7347 27.8274C21.9715 28.4578 19.9728 28.4578 18.2097 27.8274L18.2004 27.8475C18.9709 28.127 19.7438 28.2883 20.5549 28.3334L20.9148 28.3534L20.9148 31.8656L14.7242 34.6105L14.5688 34.5404C12.8264 33.7535 11.3092 32.6854 9.96307 31.3393C8.61431 29.9905 7.54842 28.4189 6.76394 26.7378L6.69065 26.5808L9.43669 20.3876L12.949 20.3876L12.969 20.7474C13.014 21.5588 13.1751 22.3667 13.4494 23.1044L13.4738 23.0932C13.1553 22.2206 12.9748 21.299 12.9748 20.3302C12.9748 19.3613 13.1553 18.4398 13.4738 17.5671L13.4548 17.5584C13.1754 18.3289 13.014 19.1018 12.969 19.9129L12.949 20.2728L9.43669 20.2728L6.6918 14.0822L6.76197 13.9268C7.54888 12.1844 8.61698 10.6672 9.96307 9.32107C11.3118 7.97231 12.8835 6.90642 14.5645 6.12194L14.7216 6.04865ZM14.7307 6.88616C13.1832 7.62834 11.7416 8.62 10.5018 9.85982C9.2578 11.1038 8.26719 12.4958 7.52703 14.0862L9.93231 19.5109L12.2354 19.5109C12.3216 18.6116 12.5417 17.7527 12.8939 16.8975L13.0451 16.5302L14.4498 17.1785L14.3107 17.5163C13.9441 18.4068 13.7367 19.3439 13.7367 20.3302C13.7367 21.3164 13.9441 22.2536 14.3107 23.144L14.4498 23.4819L13.0529 24.1266L12.8971 23.7705C12.5406 22.9557 12.321 22.0559 12.2352 21.1495L9.93231 21.1495L7.52815 26.5716C8.27033 28.1192 9.262 29.5607 10.5018 30.8005C11.7458 32.0445 13.1378 33.0351 14.7282 33.7753L20.1529 31.37L20.1529 29.0669C19.2536 28.9808 18.3947 28.7606 17.5394 28.4085L17.1721 28.2572L17.8205 26.8525L18.1583 26.9916C19.9284 27.7205 22.0159 27.7205 23.786 26.9916L24.1239 26.8525L24.7686 28.2494L24.4125 28.4052C23.5977 28.7617 22.6979 28.9813 21.7915 29.0671L21.7915 31.37L27.2136 33.7742C28.7612 33.032 30.2027 32.0403 31.4425 30.8005C32.6865 29.5565 33.6771 28.1645 34.4173 26.5741L32.012 21.1495L29.7089 21.1495C29.6228 22.0487 29.4026 22.9076 29.0505 23.7629L28.8992 24.1302L27.4945 23.4819L27.6336 23.144C28.0003 22.2536 28.2077 21.3164 28.2077 20.3302C28.2077 19.3439 28.0003 18.4068 27.6336 17.5163L27.4945 17.1785L28.8914 16.5337L29.0472 16.8898C29.4037 17.7046 29.6233 18.6044 29.7091 19.5109L32.012 19.5109L34.4162 14.0887C33.674 12.5412 32.6823 11.0996 31.4425 9.85982C30.1985 8.61581 28.8065 7.62519 27.2161 6.88504L21.7915 9.29031L21.7915 11.5934C22.6907 11.6796 23.5496 11.8997 24.4049 12.2519L24.7722 12.4031L24.1239 13.8078L23.786 13.6687C22.0159 12.9399 19.9284 12.9399 18.1583 13.6687L17.8205 13.8078L17.1757 12.4109L17.5318 12.2551C18.3466 11.8986 19.2464 11.679 20.1529 11.5932L20.1529 9.29031L14.7307 6.88616Z" fill="white"/>
</svg>
