<svg width="48" height="48" viewBox="0 0 48 48" fill="none" xmlns="http://www.w3.org/2000/svg">
<circle cx="24" cy="24" r="24" fill="url(#paint0_linear_1_162)"/>
<path d="M12.4937 29C11.3991 29 10.4374 28.773 9.60875 28.3191C8.79032 27.8551 8.15092 27.2095 7.69055 26.3824C7.23018 25.5553 7 24.5919 7 23.4924C7 22.3829 7.22507 21.4195 7.6752 20.6025C8.13557 19.7753 8.78009 19.1348 9.60875 18.6809C10.4374 18.227 11.3991 18 12.4937 18C13.5884 18 14.5449 18.227 15.3633 18.6809C16.192 19.1348 16.8365 19.7753 17.2969 20.6025C17.7572 21.4195 17.9874 22.3829 17.9874 23.4924C17.9874 24.5919 17.7572 25.5553 17.2969 26.3824C16.8365 27.2095 16.192 27.8551 15.3633 28.3191C14.5449 28.773 13.5884 29 12.4937 29ZM12.4937 26.6699C13.2917 26.6699 13.9157 26.3925 14.3659 25.8377C14.8262 25.2728 15.0564 24.4911 15.0564 23.4924C15.0564 22.4938 14.8314 21.7171 14.3812 21.1623C13.9311 20.6075 13.3019 20.3301 12.4937 20.3301C11.6855 20.3301 11.0563 20.6075 10.6062 21.1623C10.1561 21.7171 9.931 22.4938 9.931 23.4924C9.931 24.4911 10.1561 25.2728 10.6062 25.8377C11.0563 26.3925 11.6855 26.6699 12.4937 26.6699Z" fill="#2D134C"/>
<path d="M21.1278 28.8336C20.1456 28.8336 19.6546 28.3544 19.6546 27.3961V19.6039C19.6546 18.6456 20.1456 18.1664 21.1278 18.1664H24.8721C26.0383 18.1664 26.9386 18.4186 27.5729 18.923C28.2174 19.4172 28.5397 20.083 28.5397 20.9202C28.5397 21.475 28.3964 21.9592 28.11 22.3728C27.8338 22.7863 27.445 23.094 26.9437 23.2957C27.5473 23.4773 28.0128 23.785 28.3402 24.2187C28.6675 24.6424 28.8312 25.1719 28.8312 25.8074C28.8312 26.7455 28.4885 27.4869 27.8031 28.0316C27.1279 28.5663 26.202 28.8336 25.0255 28.8336H21.1278ZM22.3554 22.403H24.3657C24.8772 22.403 25.2506 22.3122 25.4859 22.1307C25.7314 21.9491 25.8542 21.6717 25.8542 21.2985C25.8542 20.9253 25.7314 20.6529 25.4859 20.4814C25.2506 20.2999 24.8772 20.2091 24.3657 20.2091H22.3554V22.403ZM22.3554 26.7909H24.6419C25.1636 26.7909 25.5422 26.6951 25.7775 26.5034C26.023 26.3017 26.1458 26.0041 26.1458 25.6107C26.1458 25.2173 26.023 24.9248 25.7775 24.7331C25.5422 24.5415 25.1636 24.4457 24.6419 24.4457H22.3554V26.7909Z" fill="#2D134C"/>
<path d="M31.7338 28.9697C31.3246 28.9697 31.0075 28.8588 30.7824 28.6369C30.5676 28.4149 30.4601 28.1022 30.4601 27.6988V19.3012C30.4601 18.8877 30.5778 18.575 30.8131 18.3631C31.0484 18.1412 31.3809 18.0303 31.8105 18.0303C32.1584 18.0303 32.4397 18.1009 32.6545 18.2421C32.8694 18.3732 33.0638 18.5951 33.2377 18.9078L36.2608 24.2792L39.2838 18.9078C39.468 18.5951 39.6624 18.3732 39.867 18.2421C40.0818 18.1009 40.3683 18.0303 40.7263 18.0303C41.1253 18.0303 41.4373 18.1412 41.6624 18.3631C41.8875 18.575 42 18.8877 42 19.3012V27.6988C42 28.1022 41.8926 28.4149 41.6777 28.6369C41.4629 28.8588 41.1458 28.9697 40.7263 28.9697C40.3171 28.9697 40 28.8588 39.7749 28.6369C39.5601 28.4149 39.4526 28.1022 39.4526 27.6988V23.0385L37.3043 26.7304C37.161 26.9523 37.0076 27.1188 36.8439 27.2297C36.6904 27.3407 36.4807 27.3961 36.2147 27.3961C35.959 27.3961 35.7492 27.3407 35.5856 27.2297C35.4219 27.1188 35.2735 26.9523 35.1405 26.7304L33.0075 23.099V27.6988C33.0075 28.1022 32.9001 28.4149 32.6852 28.6369C32.4704 28.8588 32.1533 28.9697 31.7338 28.9697Z" fill="#2D134C"/>
<defs>
<linearGradient id="paint0_linear_1_162" x1="11" y1="42.5" x2="38" y2="5" gradientUnits="userSpaceOnUse">
<stop stop-color="#EF00E1"/>
<stop offset="1" stop-color="#07E3E6"/>
</linearGradient>
</defs>
</svg>
