<svg width="24" height="24" viewBox="0 0 24 24" fill="none" xmlns="http://www.w3.org/2000/svg">
<path fill-rule="evenodd" clip-rule="evenodd" d="M0 12C0 5.37202 5.37202 0 12 0C18.628 0 24 5.36859 24 12C24 18.6314 18.628 24 12 24C5.37202 24 0 18.628 0 12ZM17.6007 12.7609C17.6007 13.2899 17.1672 13.7199 16.6416 13.7199H13.7611H10.2423H7.36178C6.83279 13.7199 6.40271 13.2865 6.40271 12.7609V11.1602C6.40271 10.6313 6.83613 10.2012 7.36178 10.2012H10.2423H11.2014H12.8021H13.7611H16.6416C17.1706 10.2012 17.6007 10.6346 17.6007 11.1602V12.7609Z" fill="#E09B0F"/>
</svg>
