<svg width="24" height="24" viewBox="0 0 24 24" fill="none" xmlns="http://www.w3.org/2000/svg">
<path d="M12 0C5.37202 0 0 5.37202 0 12C0 18.628 5.37202 24 12 24C18.628 24 24 18.6314 24 12C24 5.36859 18.628 0 12 0ZM17.6007 12.7611C17.6007 13.2901 17.1673 13.7201 16.6417 13.7201H13.7611V16.6007C13.7611 17.1297 13.3277 17.5597 12.8021 17.5597H11.2014C10.6724 17.5597 10.2424 17.1263 10.2424 16.6007V13.7201H7.36181C6.83282 13.7201 6.40274 13.2867 6.40274 12.7611V11.1604C6.40274 10.6314 6.83617 10.2014 7.36181 10.2014H10.2424V7.32081C10.2424 6.79182 10.6758 6.36179 11.2014 6.36179H12.8021C13.3311 6.36179 13.7611 6.79521 13.7611 7.32081V10.2014H16.6417C17.1707 10.2014 17.6007 10.6348 17.6007 11.1604V12.7611Z" fill="#E09B0F"/>
</svg>
