<svg width="222" height="57" viewBox="0 0 222 57" fill="none" xmlns="http://www.w3.org/2000/svg">
<g filter="url(#filter0_iii_41_881)">
<path fill-rule="evenodd" clip-rule="evenodd" d="M70.7191 0C72.9399 0 75.0873 0.687005 77.128 1.56331C79.9494 2.77485 83.0578 3.4458 86.3229 3.4458L139.919 3.4458C143.185 3.4458 146.293 2.77485 149.114 1.56332C151.155 0.687007 153.302 0 155.523 0H203.092C206.275 0 209.327 1.26428 211.578 3.51472L218.485 10.4223C220.736 12.6727 222 15.725 222 18.9076V38.3112C222 41.4938 220.736 44.5461 218.485 46.7965L211.796 53.4853C209.546 55.7357 206.494 57 203.311 57H157.057C154.595 57 152.233 56.1588 150.015 55.0921C146.96 53.6229 143.536 52.7998 139.919 52.7998L86.3228 52.7998C82.7063 52.7998 79.282 53.6229 76.2271 55.0921C74.009 56.1588 71.647 57 69.1857 57H16.3541C13.1715 57 10.1193 55.7357 7.86882 53.4853L3.51472 49.1312C1.26428 46.8807 0 43.8285 0 40.6459V17.8091C0 14.6265 1.26428 11.5743 3.51472 9.32384L9.32384 3.51472C11.5743 1.26428 14.6265 0 17.8091 0H70.7191Z" fill="#E09B0F"/>
</g>
<defs>
<filter id="filter0_iii_41_881" x="0" y="-2.4" width="222" height="61.8" filterUnits="userSpaceOnUse" color-interpolation-filters="sRGB">
<feFlood flood-opacity="0" result="BackgroundImageFix"/>
<feBlend mode="normal" in="SourceGraphic" in2="BackgroundImageFix" result="shape"/>
<feColorMatrix in="SourceAlpha" type="matrix" values="0 0 0 0 0 0 0 0 0 0 0 0 0 0 0 0 0 0 127 0" result="hardAlpha"/>
<feOffset dy="-2.4"/>
<feGaussianBlur stdDeviation="3.6"/>
<feComposite in2="hardAlpha" operator="arithmetic" k2="-1" k3="1"/>
<feColorMatrix type="matrix" values="0 0 0 0 0 0 0 0 0 0 0 0 0 0 0 0 0 0 0.39 0"/>
<feBlend mode="normal" in2="shape" result="effect1_innerShadow_41_881"/>
<feColorMatrix in="SourceAlpha" type="matrix" values="0 0 0 0 0 0 0 0 0 0 0 0 0 0 0 0 0 0 127 0" result="hardAlpha"/>
<feOffset dy="2.4"/>
<feGaussianBlur stdDeviation="3.3"/>
<feComposite in2="hardAlpha" operator="arithmetic" k2="-1" k3="1"/>
<feColorMatrix type="matrix" values="0 0 0 0 1 0 0 0 0 1 0 0 0 0 1 0 0 0 0.45 0"/>
<feBlend mode="normal" in2="effect1_innerShadow_41_881" result="effect2_innerShadow_41_881"/>
<feColorMatrix in="SourceAlpha" type="matrix" values="0 0 0 0 0 0 0 0 0 0 0 0 0 0 0 0 0 0 127 0" result="hardAlpha"/>
<feOffset dy="-2.4"/>
<feGaussianBlur stdDeviation="2.4"/>
<feComposite in2="hardAlpha" operator="arithmetic" k2="-1" k3="1"/>
<feColorMatrix type="matrix" values="0 0 0 0 0 0 0 0 0 0 0 0 0 0 0 0 0 0 0.25 0"/>
<feBlend mode="normal" in2="effect2_innerShadow_41_881" result="effect3_innerShadow_41_881"/>
</filter>
</defs>
</svg>
