<svg width="24" height="25" viewBox="0 0 24 25" fill="none" xmlns="http://www.w3.org/2000/svg">
<path fill-rule="evenodd" clip-rule="evenodd" d="M14.3767 3.24897C13.4011 1.25035 10.5989 1.25034 9.62334 3.24897C9.40557 3.69511 8.95124 3.94541 8.48826 3.90078L7.57183 3.81242C5.23443 3.58707 3.25 5.4678 3.25 7.82251V15.0901C3.25 16.2731 3.7603 17.4005 4.65201 18.1681L9.45201 22.3C10.9235 23.5667 13.0765 23.5667 14.548 22.3L19.348 18.1681C20.2397 17.4005 20.75 16.2731 20.75 15.0901V7.82251C20.75 5.46781 18.7656 3.58707 16.4282 3.81242L15.5117 3.90078C15.0488 3.94541 14.5944 3.69511 14.3767 3.24897ZM15.5234 11.0372C15.8201 10.7481 15.8262 10.2733 15.5372 9.9766C15.2481 9.67993 14.7733 9.67376 14.4766 9.96283L10.9161 13.432L9.54446 11.9842C9.25959 11.6835 8.78489 11.6707 8.48419 11.9555C8.18349 12.2404 8.17066 12.7151 8.45554 13.0158L10.3503 15.0158C10.4883 15.1615 10.679 15.2458 10.8797 15.2499C11.0804 15.2539 11.2744 15.1773 11.4181 15.0372L15.5234 11.0372Z" fill="white"/>
</svg>
